<mxfile host="Electron" agent="Mozilla/5.0 (Macintosh; Intel Mac OS X 10_15_7) AppleWebKit/537.36 (KHTML, like Gecko) draw.io/24.7.8 Chrome/128.0.6613.36 Electron/32.0.1 Safari/537.36" version="24.7.8">
  <diagram name="Page-1" id="jLtPJ1LHg6DGONc26ywa">
    <mxGraphModel dx="2233" dy="2073" grid="1" gridSize="10" guides="1" tooltips="1" connect="1" arrows="1" fold="1" page="1" pageScale="1" pageWidth="827" pageHeight="1169" math="0" shadow="0">
      <root>
        <mxCell id="0" />
        <mxCell id="1" parent="0" />
        <mxCell id="gHiqJzR3jGxB0aYysNz6-19" value="&lt;font style=&quot;font-size: 12px;&quot; color=&quot;#006600&quot;&gt;&lt;b&gt;17. FIX&lt;/b&gt;&lt;/font&gt;&lt;div style=&quot;font-size: 12px;&quot;&gt;&lt;font style=&quot;font-size: 12px;&quot; color=&quot;#006600&quot;&gt;&lt;b&gt;Execution Report&lt;/b&gt;&lt;/font&gt;&lt;/div&gt;&lt;div style=&quot;font-size: 12px;&quot;&gt;&lt;font style=&quot;font-size: 12px;&quot; color=&quot;#006600&quot;&gt;&lt;b&gt;Fill&lt;/b&gt;&lt;/font&gt;&lt;/div&gt;" style="rounded=0;orthogonalLoop=1;jettySize=auto;html=1;align=left;labelBackgroundColor=none;" edge="1" parent="1" source="7HpykqLFBmdJ59aaJS6n-3" target="7HpykqLFBmdJ59aaJS6n-8">
          <mxGeometry x="0.8333" y="-30" relative="1" as="geometry">
            <mxPoint x="-1" as="offset" />
          </mxGeometry>
        </mxCell>
        <mxCell id="7HpykqLFBmdJ59aaJS6n-3" value="FIX&lt;div&gt;&lt;span style=&quot;&quot;&gt;Server&lt;/span&gt;&lt;/div&gt;&lt;div&gt;&lt;span style=&quot;&quot;&gt;(REST/WS)&lt;/span&gt;&lt;/div&gt;" style="rounded=0;whiteSpace=wrap;html=1;fillColor=#e1d5e7;strokeColor=#9673a6;labelBackgroundColor=none;" parent="1" vertex="1">
          <mxGeometry x="40" y="460" width="120" height="60" as="geometry" />
        </mxCell>
        <mxCell id="7HpykqLFBmdJ59aaJS6n-4" style="rounded=0;orthogonalLoop=1;jettySize=auto;html=1;shape=flexArrow;labelBackgroundColor=none;" parent="1" source="7HpykqLFBmdJ59aaJS6n-5" target="7HpykqLFBmdJ59aaJS6n-6" edge="1">
          <mxGeometry relative="1" as="geometry" />
        </mxCell>
        <mxCell id="gHiqJzR3jGxB0aYysNz6-6" value="async. Push&lt;div&gt;Market Price Data&lt;/div&gt;&lt;div&gt;(TOB &amp;amp; Last Trade)&lt;/div&gt;" style="edgeStyle=orthogonalEdgeStyle;rounded=0;orthogonalLoop=1;jettySize=auto;html=1;endArrow=async;endFill=1;curved=1;align=left;dashed=1;dashPattern=8 8;labelBackgroundColor=none;" edge="1" parent="1" source="7HpykqLFBmdJ59aaJS6n-5" target="7HpykqLFBmdJ59aaJS6n-18">
          <mxGeometry x="0.1114" y="-20" relative="1" as="geometry">
            <mxPoint as="offset" />
          </mxGeometry>
        </mxCell>
        <mxCell id="gHiqJzR3jGxB0aYysNz6-7" value="async. Push&lt;div&gt;Market Depth Data&lt;/div&gt;&lt;div&gt;(FOB)&lt;/div&gt;" style="edgeStyle=orthogonalEdgeStyle;rounded=0;orthogonalLoop=1;jettySize=auto;html=1;endArrow=async;endFill=1;curved=1;align=left;dashed=1;dashPattern=8 8;labelBackgroundColor=none;" edge="1" parent="1" source="7HpykqLFBmdJ59aaJS6n-5" target="7HpykqLFBmdJ59aaJS6n-21">
          <mxGeometry x="-0.555" y="10" relative="1" as="geometry">
            <mxPoint as="offset" />
          </mxGeometry>
        </mxCell>
        <mxCell id="7HpykqLFBmdJ59aaJS6n-5" value="Binance&lt;div&gt;Market Data&lt;/div&gt;&lt;div&gt;Connector&lt;/div&gt;" style="rounded=0;whiteSpace=wrap;html=1;fillColor=#d5e8d4;strokeColor=#82b366;labelBackgroundColor=none;" parent="1" vertex="1">
          <mxGeometry x="580" y="-60" width="120" height="60" as="geometry" />
        </mxCell>
        <mxCell id="7HpykqLFBmdJ59aaJS6n-6" value="Binance" style="ellipse;shape=cloud;whiteSpace=wrap;html=1;fillColor=#f5f5f5;fontColor=#333333;strokeColor=#666666;labelBackgroundColor=none;" parent="1" vertex="1">
          <mxGeometry x="620" y="-300" width="290" height="150" as="geometry" />
        </mxCell>
        <mxCell id="gHiqJzR3jGxB0aYysNz6-23" value="18. Fill&lt;div&gt;Notification&lt;/div&gt;" style="edgeStyle=orthogonalEdgeStyle;rounded=0;orthogonalLoop=1;jettySize=auto;html=1;curved=1;targetPerimeterSpacing=10;align=left;" edge="1" parent="1" source="7HpykqLFBmdJ59aaJS6n-8" target="gHiqJzR3jGxB0aYysNz6-20">
          <mxGeometry x="0.2353" y="-15" relative="1" as="geometry">
            <mxPoint x="15" y="15" as="offset" />
          </mxGeometry>
        </mxCell>
        <mxCell id="7HpykqLFBmdJ59aaJS6n-8" value="Web&lt;div&gt;App&lt;/div&gt;" style="ellipse;shape=cloud;whiteSpace=wrap;html=1;fillColor=#f5f5f5;fontColor=#333333;strokeColor=#666666;labelBackgroundColor=none;" parent="1" vertex="1">
          <mxGeometry x="-210" y="445" width="130" height="90" as="geometry" />
        </mxCell>
        <mxCell id="gHiqJzR3jGxB0aYysNz6-3" value="&lt;b style=&quot;font-size: 12px;&quot;&gt;&lt;font color=&quot;#cc6600&quot; style=&quot;font-size: 12px;&quot;&gt;2. event&lt;/font&gt;&lt;/b&gt;&lt;div style=&quot;font-size: 12px;&quot;&gt;&lt;b&gt;&lt;font color=&quot;#cc6600&quot; style=&quot;font-size: 12px;&quot;&gt;CuratorWeightsSet&lt;/font&gt;&lt;/b&gt;&lt;/div&gt;" style="rounded=0;orthogonalLoop=1;jettySize=auto;html=1;align=left;labelBackgroundColor=none;edgeStyle=orthogonalEdgeStyle;curved=1;" edge="1" parent="1" source="7HpykqLFBmdJ59aaJS6n-9" target="7HpykqLFBmdJ59aaJS6n-12">
          <mxGeometry x="-0.3728" y="20" relative="1" as="geometry">
            <Array as="points">
              <mxPoint x="-190" y="150" />
            </Array>
            <mxPoint as="offset" />
          </mxGeometry>
        </mxCell>
        <mxCell id="gHiqJzR3jGxB0aYysNz6-24" value="&lt;b&gt;&lt;font color=&quot;#cc6600&quot;&gt;20. event&lt;/font&gt;&lt;/b&gt;&lt;div&gt;&lt;b&gt;&lt;font color=&quot;#cc6600&quot;&gt;SolverWeightsSet&lt;/font&gt;&lt;/b&gt;&lt;/div&gt;" style="edgeStyle=orthogonalEdgeStyle;rounded=0;orthogonalLoop=1;jettySize=auto;html=1;exitX=0.13;exitY=0.77;exitDx=0;exitDy=0;exitPerimeter=0;targetPerimeterSpacing=10;sourcePerimeterSpacing=10;curved=1;align=left;" edge="1" parent="1" source="7HpykqLFBmdJ59aaJS6n-9" target="gHiqJzR3jGxB0aYysNz6-20">
          <mxGeometry x="0.428" y="25" relative="1" as="geometry">
            <mxPoint as="offset" />
          </mxGeometry>
        </mxCell>
        <mxCell id="7HpykqLFBmdJ59aaJS6n-9" value="&lt;div&gt;Smart&lt;/div&gt;&lt;div&gt;Contracts&lt;/div&gt;" style="ellipse;shape=cloud;whiteSpace=wrap;html=1;fillColor=#f5f5f5;fontColor=#333333;strokeColor=#666666;labelBackgroundColor=none;" parent="1" vertex="1">
          <mxGeometry x="-290" y="200" width="140" height="100" as="geometry" />
        </mxCell>
        <mxCell id="7HpykqLFBmdJ59aaJS6n-12" value="EVM&lt;div&gt;Connector&lt;/div&gt;" style="rounded=0;whiteSpace=wrap;html=1;fillColor=#e1d5e7;strokeColor=#9673a6;labelBackgroundColor=none;" parent="1" vertex="1">
          <mxGeometry x="-40" y="120" width="120" height="60" as="geometry" />
        </mxCell>
        <mxCell id="7HpykqLFBmdJ59aaJS6n-13" style="rounded=0;orthogonalLoop=1;jettySize=auto;html=1;shape=flexArrow;labelBackgroundColor=none;" parent="1" source="7HpykqLFBmdJ59aaJS6n-14" target="7HpykqLFBmdJ59aaJS6n-6" edge="1">
          <mxGeometry relative="1" as="geometry" />
        </mxCell>
        <mxCell id="7HpykqLFBmdJ59aaJS6n-14" value="Binance&lt;div&gt;&lt;span style=&quot;&quot;&gt;Order Connector&lt;/span&gt;&lt;br&gt;&lt;/div&gt;" style="rounded=0;whiteSpace=wrap;html=1;fillColor=#f8cecc;strokeColor=#b85450;labelBackgroundColor=none;" parent="1" vertex="1">
          <mxGeometry x="965" y="-110" width="120" height="60" as="geometry" />
        </mxCell>
        <mxCell id="7HpykqLFBmdJ59aaJS6n-15" value="11. Send Orders" style="edgeStyle=orthogonalEdgeStyle;rounded=0;orthogonalLoop=1;jettySize=auto;html=1;endArrow=classic;endFill=1;labelBackgroundColor=none;curved=1;" parent="1" source="7HpykqLFBmdJ59aaJS6n-16" target="7HpykqLFBmdJ59aaJS6n-14" edge="1">
          <mxGeometry x="0.2" y="-45" relative="1" as="geometry">
            <mxPoint as="offset" />
          </mxGeometry>
        </mxCell>
        <mxCell id="7HpykqLFBmdJ59aaJS6n-16" value="Binance&lt;div&gt;&lt;span style=&quot;&quot;&gt;Order Tracker&lt;/span&gt;&lt;br&gt;&lt;/div&gt;" style="rounded=0;whiteSpace=wrap;html=1;fillColor=#f8cecc;strokeColor=#b85450;labelBackgroundColor=none;" parent="1" vertex="1">
          <mxGeometry x="965" width="120" height="60" as="geometry" />
        </mxCell>
        <mxCell id="7HpykqLFBmdJ59aaJS6n-18" value="Binance&lt;div&gt;&lt;span style=&quot;&quot;&gt;Price Tracker&lt;/span&gt;&lt;br&gt;&lt;/div&gt;" style="rounded=0;whiteSpace=wrap;html=1;fillColor=#d5e8d4;strokeColor=#82b366;labelBackgroundColor=none;" parent="1" vertex="1">
          <mxGeometry x="260" y="70" width="120" height="60" as="geometry" />
        </mxCell>
        <mxCell id="7HpykqLFBmdJ59aaJS6n-21" value="&lt;div&gt;Order Book&lt;/div&gt;&lt;div&gt;Manager&lt;/div&gt;" style="rounded=0;whiteSpace=wrap;html=1;fillColor=#d5e8d4;strokeColor=#82b366;labelBackgroundColor=none;" parent="1" vertex="1">
          <mxGeometry x="480" y="80" width="120" height="60" as="geometry" />
        </mxCell>
        <mxCell id="gHiqJzR3jGxB0aYysNz6-18" value="16." style="rounded=0;orthogonalLoop=1;jettySize=auto;html=1;" edge="1" parent="1" source="7HpykqLFBmdJ59aaJS6n-24" target="7HpykqLFBmdJ59aaJS6n-3">
          <mxGeometry x="0.2" y="-10" relative="1" as="geometry">
            <mxPoint as="offset" />
          </mxGeometry>
        </mxCell>
        <mxCell id="7HpykqLFBmdJ59aaJS6n-24" value="&lt;div&gt;Index&lt;/div&gt;&lt;div&gt;Order Manager&lt;/div&gt;" style="rounded=0;whiteSpace=wrap;html=1;fillColor=#e1d5e7;strokeColor=#9673a6;labelBackgroundColor=none;" parent="1" vertex="1">
          <mxGeometry x="260" y="460" width="120" height="60" as="geometry" />
        </mxCell>
        <mxCell id="7HpykqLFBmdJ59aaJS6n-31" value="6. Get&lt;div&gt;Available&lt;/div&gt;&lt;div&gt;Liquidity&lt;/div&gt;" style="rounded=0;orthogonalLoop=1;jettySize=auto;html=1;endArrow=classic;endFill=1;align=left;labelBackgroundColor=none;" parent="1" source="7HpykqLFBmdJ59aaJS6n-34" target="7HpykqLFBmdJ59aaJS6n-21" edge="1">
          <mxGeometry x="-0.1072" y="-13" relative="1" as="geometry">
            <mxPoint as="offset" />
          </mxGeometry>
        </mxCell>
        <mxCell id="7HpykqLFBmdJ59aaJS6n-32" value="5.&lt;div&gt;Get Current Prices&lt;/div&gt;" style="rounded=0;orthogonalLoop=1;jettySize=auto;html=1;endArrow=classic;endFill=1;align=left;edgeStyle=orthogonalEdgeStyle;curved=1;exitX=0.079;exitY=-0.001;exitDx=0;exitDy=0;exitPerimeter=0;labelBackgroundColor=none;" parent="1" source="7HpykqLFBmdJ59aaJS6n-34" target="7HpykqLFBmdJ59aaJS6n-18" edge="1">
          <mxGeometry x="0.1616" y="-15" relative="1" as="geometry">
            <mxPoint as="offset" />
          </mxGeometry>
        </mxCell>
        <mxCell id="gHiqJzR3jGxB0aYysNz6-4" value="4.&lt;div&gt;Get Current Basket Weights,&lt;/div&gt;&lt;div&gt;Prices &amp;amp; Quantites&lt;/div&gt;" style="edgeStyle=orthogonalEdgeStyle;rounded=0;orthogonalLoop=1;jettySize=auto;html=1;align=right;labelBackgroundColor=none;curved=1;" edge="1" parent="1" source="7HpykqLFBmdJ59aaJS6n-34" target="7HpykqLFBmdJ59aaJS6n-44">
          <mxGeometry x="-0.4118" y="-10" relative="1" as="geometry">
            <Array as="points">
              <mxPoint x="540" y="630" />
            </Array>
            <mxPoint y="1" as="offset" />
          </mxGeometry>
        </mxCell>
        <mxCell id="gHiqJzR3jGxB0aYysNz6-10" value="9. Push&lt;div&gt;Inventory Rebalance&lt;/div&gt;&lt;div&gt;Request&lt;/div&gt;" style="edgeStyle=orthogonalEdgeStyle;rounded=0;orthogonalLoop=1;jettySize=auto;html=1;exitX=0.75;exitY=0;exitDx=0;exitDy=0;curved=1;entryX=0.25;entryY=1;entryDx=0;entryDy=0;align=left;labelBackgroundColor=none;" edge="1" parent="1" source="7HpykqLFBmdJ59aaJS6n-34" target="7HpykqLFBmdJ59aaJS6n-48">
          <mxGeometry x="-0.3505" y="25" relative="1" as="geometry">
            <Array as="points">
              <mxPoint x="750" y="220" />
              <mxPoint x="972" y="220" />
            </Array>
            <mxPoint as="offset" />
          </mxGeometry>
        </mxCell>
        <mxCell id="gHiqJzR3jGxB0aYysNz6-15" value="&lt;font color=&quot;#990099&quot; style=&quot;font-size: 12px;&quot;&gt;&lt;b&gt;14. Mint&lt;/b&gt;&lt;/font&gt;&lt;div style=&quot;font-size: 12px;&quot;&gt;&lt;font color=&quot;#990099&quot; style=&quot;font-size: 12px;&quot;&gt;&lt;b&gt;New Quantity&lt;/b&gt;&lt;/font&gt;&lt;/div&gt;&lt;div style=&quot;font-size: 12px;&quot;&gt;&lt;font color=&quot;#990099&quot; style=&quot;font-size: 12px;&quot;&gt;&lt;b&gt;of an Index for the User&lt;/b&gt;&lt;/font&gt;&lt;/div&gt;" style="edgeStyle=orthogonalEdgeStyle;rounded=0;orthogonalLoop=1;jettySize=auto;html=1;curved=1;align=left;labelBackgroundColor=none;" edge="1" parent="1" source="7HpykqLFBmdJ59aaJS6n-34" target="7HpykqLFBmdJ59aaJS6n-12">
          <mxGeometry x="0.0968" y="-60" relative="1" as="geometry">
            <mxPoint x="480" y="340" as="sourcePoint" />
            <mxPoint x="20.043478260869733" y="210" as="targetPoint" />
            <Array as="points">
              <mxPoint x="20" y="340" />
            </Array>
            <mxPoint as="offset" />
          </mxGeometry>
        </mxCell>
        <mxCell id="gHiqJzR3jGxB0aYysNz6-16" style="edgeStyle=orthogonalEdgeStyle;rounded=0;orthogonalLoop=1;jettySize=auto;html=1;curved=1;entryX=0.5;entryY=0;entryDx=0;entryDy=0;" edge="1" parent="1" source="7HpykqLFBmdJ59aaJS6n-34" target="7HpykqLFBmdJ59aaJS6n-24">
          <mxGeometry relative="1" as="geometry">
            <Array as="points">
              <mxPoint x="320" y="400" />
            </Array>
          </mxGeometry>
        </mxCell>
        <mxCell id="gHiqJzR3jGxB0aYysNz6-17" value="15. Notify&lt;div&gt;about Index Order Fill&lt;/div&gt;" style="edgeLabel;html=1;align=left;verticalAlign=middle;resizable=0;points=[];labelBackgroundColor=none;" vertex="1" connectable="0" parent="gHiqJzR3jGxB0aYysNz6-16">
          <mxGeometry x="0.0767" y="-3" relative="1" as="geometry">
            <mxPoint x="-6" y="-17" as="offset" />
          </mxGeometry>
        </mxCell>
        <mxCell id="gHiqJzR3jGxB0aYysNz6-25" value="&lt;font style=&quot;font-size: 12px;&quot; color=&quot;#000099&quot;&gt;&lt;b&gt;Between 4..14&lt;/b&gt;&lt;/font&gt;&lt;div&gt;&lt;font style=&quot;font-size: 12px;&quot; color=&quot;#000099&quot;&gt;&lt;b&gt;Update&amp;nbsp;&lt;/b&gt;&lt;/font&gt;&lt;b style=&quot;font-size: 12px; color: rgb(0, 0, 153); background-color: initial;&quot;&gt;Basket&lt;/b&gt;&lt;/div&gt;" style="edgeStyle=orthogonalEdgeStyle;rounded=0;orthogonalLoop=1;jettySize=auto;html=1;curved=1;align=left;labelBackgroundColor=none;" edge="1" parent="1" source="7HpykqLFBmdJ59aaJS6n-34" target="7HpykqLFBmdJ59aaJS6n-44">
          <mxGeometry x="-0.3753" y="10" relative="1" as="geometry">
            <Array as="points">
              <mxPoint x="780" y="630" />
            </Array>
            <mxPoint as="offset" />
          </mxGeometry>
        </mxCell>
        <mxCell id="7HpykqLFBmdJ59aaJS6n-34" value="&lt;div&gt;Solver&lt;/div&gt;" style="rounded=0;whiteSpace=wrap;html=1;fillColor=#fff2cc;strokeColor=#d6b656;labelBackgroundColor=none;" parent="1" vertex="1">
          <mxGeometry x="480" y="240" width="360" height="280" as="geometry" />
        </mxCell>
        <mxCell id="7HpykqLFBmdJ59aaJS6n-43" value="3.&lt;div&gt;internal event&lt;/div&gt;&lt;div&gt;OnCuratorWeights&lt;/div&gt;" style="rounded=0;orthogonalLoop=1;jettySize=auto;html=1;endArrow=classic;endFill=1;edgeStyle=orthogonalEdgeStyle;curved=1;entryX=-0.002;entryY=0.144;entryDx=0;entryDy=0;entryPerimeter=0;align=left;labelBackgroundColor=none;" parent="1" source="7HpykqLFBmdJ59aaJS6n-12" target="7HpykqLFBmdJ59aaJS6n-34" edge="1">
          <mxGeometry x="0.0197" y="20" relative="1" as="geometry">
            <mxPoint y="169" as="sourcePoint" />
            <mxPoint x="520" y="335" as="targetPoint" />
            <mxPoint as="offset" />
          </mxGeometry>
        </mxCell>
        <mxCell id="7HpykqLFBmdJ59aaJS6n-44" value="&lt;div&gt;Basket&lt;/div&gt;&lt;div&gt;Manager&lt;/div&gt;" style="rounded=0;whiteSpace=wrap;html=1;fillColor=#dae8fc;strokeColor=#6c8ebf;labelBackgroundColor=none;" parent="1" vertex="1">
          <mxGeometry x="600" y="600" width="120" height="60" as="geometry" />
        </mxCell>
        <mxCell id="gHiqJzR3jGxB0aYysNz6-8" value="7. Get&lt;div&gt;Inventory&lt;/div&gt;&lt;div&gt;(Lot Prices &amp;amp; Quantities,&lt;/div&gt;&lt;div&gt;Open Orders)&lt;/div&gt;" style="edgeStyle=orthogonalEdgeStyle;rounded=0;orthogonalLoop=1;jettySize=auto;html=1;exitX=0;exitY=0.5;exitDx=0;exitDy=0;entryX=0.5;entryY=0;entryDx=0;entryDy=0;curved=1;align=left;labelBackgroundColor=none;" edge="1" parent="1" source="7HpykqLFBmdJ59aaJS6n-48" target="7HpykqLFBmdJ59aaJS6n-34">
          <mxGeometry x="0.2223" y="-20" relative="1" as="geometry">
            <mxPoint as="offset" />
          </mxGeometry>
        </mxCell>
        <mxCell id="gHiqJzR3jGxB0aYysNz6-11" value="&lt;font style=&quot;font-size: 12px;&quot; color=&quot;#cc0000&quot;&gt;&lt;b&gt;10. Send&lt;/b&gt;&lt;/font&gt;&lt;div&gt;&lt;font style=&quot;font-size: 12px;&quot; color=&quot;#cc0000&quot;&gt;&lt;b&gt;Individual Orders&lt;/b&gt;&lt;/font&gt;&lt;/div&gt;" style="edgeStyle=orthogonalEdgeStyle;rounded=0;orthogonalLoop=1;jettySize=auto;html=1;curved=1;align=left;" edge="1" parent="1" source="7HpykqLFBmdJ59aaJS6n-48" target="7HpykqLFBmdJ59aaJS6n-16">
          <mxGeometry x="0.1811" y="-15" relative="1" as="geometry">
            <mxPoint as="offset" />
          </mxGeometry>
        </mxCell>
        <mxCell id="7HpykqLFBmdJ59aaJS6n-48" value="&lt;div&gt;Inventory&lt;/div&gt;&lt;div&gt;Manager&lt;/div&gt;" style="rounded=0;whiteSpace=wrap;html=1;fillColor=#f8cecc;strokeColor=#b85450;labelBackgroundColor=none;" parent="1" vertex="1">
          <mxGeometry x="920" y="110" width="210" height="60" as="geometry" />
        </mxCell>
        <mxCell id="7HpykqLFBmdJ59aaJS6n-49" value="Solver" style="ellipse;shape=cloud;whiteSpace=wrap;html=1;labelBackgroundColor=none;" parent="1" vertex="1">
          <mxGeometry x="505" y="255" width="310" height="230" as="geometry" />
        </mxCell>
        <mxCell id="gHiqJzR3jGxB0aYysNz6-2" value="1.&lt;div&gt;&lt;div style=&quot;&quot;&gt;IndexRegistry&lt;/div&gt;&lt;div&gt;setCuratorWeights()&lt;/div&gt;&lt;/div&gt;" style="rounded=0;orthogonalLoop=1;jettySize=auto;html=1;align=left;labelBackgroundColor=none;" edge="1" parent="1" source="gHiqJzR3jGxB0aYysNz6-1" target="7HpykqLFBmdJ59aaJS6n-9">
          <mxGeometry x="-0.6667" y="30" relative="1" as="geometry">
            <mxPoint as="offset" />
          </mxGeometry>
        </mxCell>
        <mxCell id="gHiqJzR3jGxB0aYysNz6-1" value="Curator" style="shape=umlActor;verticalLabelPosition=bottom;verticalAlign=top;html=1;outlineConnect=0;labelBackgroundColor=none;" vertex="1" parent="1">
          <mxGeometry x="-470" y="130" width="30" height="60" as="geometry" />
        </mxCell>
        <mxCell id="gHiqJzR3jGxB0aYysNz6-9" value="&lt;font color=&quot;#990000&quot; style=&quot;font-size: 12px;&quot;&gt;&lt;b style=&quot;&quot;&gt;8. Solve for:&lt;/b&gt;&lt;/font&gt;&lt;div style=&quot;font-size: 12px;&quot;&gt;&lt;ul&gt;&lt;li&gt;&lt;font color=&quot;#990000&quot; style=&quot;font-size: 12px;&quot;&gt;&lt;b&gt;Current Index Orders&lt;/b&gt;&lt;/font&gt;&lt;/li&gt;&lt;li&gt;&lt;font color=&quot;#990000&quot; style=&quot;font-size: 12px;&quot;&gt;&lt;b&gt;Current Inventory&lt;br&gt;&lt;/b&gt;&lt;/font&gt;&lt;/li&gt;&lt;li&gt;&lt;font color=&quot;#990000&quot; style=&quot;font-size: 12px;&quot;&gt;&lt;b&gt;Current Prices&lt;/b&gt;&lt;/font&gt;&lt;/li&gt;&lt;li&gt;&lt;font color=&quot;#990000&quot; style=&quot;font-size: 12px;&quot;&gt;&lt;b&gt;Available Liquidity&lt;/b&gt;&lt;/font&gt;&lt;/li&gt;&lt;li&gt;&lt;font color=&quot;#990000&quot; style=&quot;font-size: 12px;&quot;&gt;&lt;b style=&quot;&quot;&gt;Constraints (fees, costs)&lt;/b&gt;&lt;/font&gt;&lt;/li&gt;&lt;/ul&gt;&lt;/div&gt;" style="edgeStyle=orthogonalEdgeStyle;rounded=0;orthogonalLoop=1;jettySize=auto;html=1;curved=1;align=left;labelBackgroundColor=none;" edge="1" parent="1" source="7HpykqLFBmdJ59aaJS6n-34" target="7HpykqLFBmdJ59aaJS6n-34">
          <mxGeometry x="0.1033" y="10" relative="1" as="geometry">
            <mxPoint x="840" y="499.99999999999955" as="sourcePoint" />
            <mxPoint x="840" y="417" as="targetPoint" />
            <Array as="points">
              <mxPoint x="910" y="500" />
              <mxPoint x="910" y="417" />
            </Array>
            <mxPoint as="offset" />
          </mxGeometry>
        </mxCell>
        <mxCell id="gHiqJzR3jGxB0aYysNz6-12" style="edgeStyle=orthogonalEdgeStyle;rounded=0;orthogonalLoop=1;jettySize=auto;html=1;entryX=0.998;entryY=0.146;entryDx=0;entryDy=0;entryPerimeter=0;curved=1;exitX=0.5;exitY=1;exitDx=0;exitDy=0;labelBackgroundColor=none;" edge="1" parent="1" source="7HpykqLFBmdJ59aaJS6n-48" target="7HpykqLFBmdJ59aaJS6n-34">
          <mxGeometry relative="1" as="geometry" />
        </mxCell>
        <mxCell id="gHiqJzR3jGxB0aYysNz6-13" value="&lt;div&gt;&lt;br&gt;&lt;/div&gt;&lt;div&gt;12. Push&lt;/div&gt;&lt;div&gt;Fill Notifications&lt;/div&gt;" style="edgeLabel;html=1;align=left;verticalAlign=middle;resizable=0;points=[];labelBackgroundColor=none;" vertex="1" connectable="0" parent="gHiqJzR3jGxB0aYysNz6-12">
          <mxGeometry x="0.1333" y="-12" relative="1" as="geometry">
            <mxPoint x="58" y="-29" as="offset" />
          </mxGeometry>
        </mxCell>
        <mxCell id="gHiqJzR3jGxB0aYysNz6-14" value="&lt;font color=&quot;#990000&quot; style=&quot;font-size: 12px;&quot;&gt;&lt;b style=&quot;&quot;&gt;13. On Fill Notification:&lt;/b&gt;&lt;/font&gt;&lt;div style=&quot;font-size: 12px;&quot;&gt;&lt;ul&gt;&lt;li&gt;Calculate filled Index Orders&lt;/li&gt;&lt;li&gt;Repeat 8. until... [TBD: tolerance, delay, ...]&lt;/li&gt;&lt;/ul&gt;&lt;/div&gt;" style="edgeStyle=orthogonalEdgeStyle;rounded=0;orthogonalLoop=1;jettySize=auto;html=1;curved=1;align=left;labelBackgroundColor=none;" edge="1" parent="1">
          <mxGeometry x="0.1007" y="10" relative="1" as="geometry">
            <mxPoint x="840" y="393" as="sourcePoint" />
            <mxPoint x="840" y="310" as="targetPoint" />
            <Array as="points">
              <mxPoint x="910" y="393" />
              <mxPoint x="910" y="310" />
            </Array>
            <mxPoint as="offset" />
          </mxGeometry>
        </mxCell>
        <mxCell id="gHiqJzR3jGxB0aYysNz6-20" value="User" style="shape=umlActor;verticalLabelPosition=bottom;verticalAlign=top;html=1;outlineConnect=0;labelBackgroundColor=none;" vertex="1" parent="1">
          <mxGeometry x="-390" y="430" width="30" height="60" as="geometry" />
        </mxCell>
      </root>
    </mxGraphModel>
  </diagram>
</mxfile>
